<svg id="notes" xmlns="http://www.w3.org/2000/svg" width="18.439" height="20.283" viewBox="0 0 18.439 20.283">
  <path id="Path_934" data-name="Path 934" d="M6,5.922A.922.922,0,0,1,6.922,5h9.219a.922.922,0,0,1,0,1.844H6.922A.922.922,0,0,1,6,5.922Z" transform="translate(-2.312 -1.312)" fill="#49ca7d"/>
  <path id="Path_935" data-name="Path 935" d="M6,9.922A.922.922,0,0,1,6.922,9h9.219a.922.922,0,0,1,0,1.844H6.922A.922.922,0,0,1,6,9.922Z" transform="translate(-2.312 -1.625)" fill="#49ca7d"/>
  <path id="Path_936" data-name="Path 936" d="M6.922,13a.922.922,0,0,0,0,1.844h9.219a.922.922,0,0,0,0-1.844Z" transform="translate(-2.312 -1.937)" fill="#49ca7d"/>
  <path id="Path_937" data-name="Path 937" d="M6,17.922A.922.922,0,0,1,6.922,17H10.61a.922.922,0,0,1,0,1.844H6.922A.922.922,0,0,1,6,17.922Z" transform="translate(-2.312 -2.249)" fill="#49ca7d"/>
  <path id="Path_938" data-name="Path 938" d="M2,3.766A2.766,2.766,0,0,1,4.766,1H17.673a2.766,2.766,0,0,1,2.766,2.766V18.517a2.766,2.766,0,0,1-2.766,2.766H4.766A2.766,2.766,0,0,1,2,18.517Zm2.766-.922H17.673a.922.922,0,0,1,.922.922V18.517a.922.922,0,0,1-.922.922H4.766a.922.922,0,0,1-.922-.922V3.766A.922.922,0,0,1,4.766,2.844Z" transform="translate(-2 -1)" fill="#49ca7d" fill-rule="evenodd"/>
</svg>
