<svg xmlns="http://www.w3.org/2000/svg" width="24" height="24.129" viewBox="0 0 24 24.129">
  <g id="podcasts" transform="translate(-0.355 -0.116)">
    <circle id="Ellipse_9" data-name="Ellipse 9" cx="12" cy="12" r="12" transform="translate(0.355 0.116)" fill="#a479e2"/>
    <g id="Group_24" data-name="Group 24" transform="translate(1.159 0.823)">
      <path id="Path_939" data-name="Path 939" d="M202.4,324.2a12.478,12.478,0,0,1-3.949.027c-.415-1.786-1.211-6.491-.82-7.909.35-1.268,2.355-1.443,2.792-1.443s2.442.175,2.792,1.443C203.607,317.734,202.819,322.4,202.4,324.2Z" transform="translate(-189.163 -300.954)" fill="#f2f2f2"/>
      <circle id="Ellipse_10" data-name="Ellipse 10" cx="2.668" cy="2.668" r="2.668" transform="translate(8.513 7.573)" fill="#f2f2f2"/>
      <path id="Path_940" data-name="Path 940" d="M110.051,104.572a7.385,7.385,0,0,0-4.035,13.571,10.276,10.276,0,0,1,.033-1.884,5.878,5.878,0,1,1,8.143-.134,9.244,9.244,0,0,1,.06,1.905,7.384,7.384,0,0,0-4.2-13.457Z" transform="translate(-98.869 -100.777)" fill="#f2f2f2"/>
      <path id="Path_941" data-name="Path 941" d="M35.061,25.787a11.183,11.183,0,0,0-3.452,21.819c-.1-.522-.194-1.107-.284-1.714a9.673,9.673,0,1,1,7.644-.074c-.089.612-.189,1.2-.285,1.731a11.182,11.182,0,0,0-3.623-21.761Z" transform="translate(-23.879 -25.787)" fill="#f2f2f2"/>
    </g>
  </g>
</svg>
