<svg xmlns="http://www.w3.org/2000/svg" width="22.302" height="22.302" viewBox="0 0 22.302 22.302">
  <path id="Path_944" data-name="Path 944" d="M20.895,0H1.407A1.407,1.407,0,0,0,0,1.407V20.895A1.407,1.407,0,0,0,1.407,22.3H20.895A1.407,1.407,0,0,0,22.3,20.895V1.407A1.407,1.407,0,0,0,20.895,0ZM4.179,20.895H1.407V18.109H4.179Zm0-5.572H1.407V12.537H4.179Zm0-5.572H1.407V6.965H4.179Zm0-5.572H1.407V1.407H4.179ZM16.716,20.895H5.572V13.93H16.716Zm0-8.358H5.572V1.407H16.716Zm4.179,8.358H18.109V18.109h2.786Zm0-5.572H18.109V12.537h2.786Zm0-5.572H18.109V6.965h2.786Zm0-5.572H18.109V1.407h2.786Z" transform="translate(0)" fill="#fc0"/>
</svg>
